General
Complete name                    : K:HQ Movies & CollectionsWe Were Soldiers 2002 720p BluRay x264We Were Soldiers [2002].mkv
Format                           : Matroska
File size                        : 4.37 GiB
Duration                         : 2h 18mn
Overall bit rate                 : 4 522 Kbps
Encoded date                     : UTC 2009-06-07 08:20:10
Writing application              : mkvmerge v2.8.0 ('The Tree') built on May  9 2009 18:02:06
Writing library                  : libebml v0.7.7 + libmatroska v0.8.1

Video
ID                               : 1
Format                           : AVC
Format/Info                      : Advanced Video Codec
Format profile                   : High@L4.1
Format settings, CABAC           : Yes
Format settings, ReFrames        : 5 frames
Muxing mode                      : Container profile=Unknown@4.1
Codec ID                         : V_MPEG4/ISO/AVC
Duration                         : 2h 18mn
Bit rate                         : 3 984 Kbps
Nominal bit rate                 : 4 072 Kbps
Width                            : 1 280 pixels
Height                           : 542 pixels
Display aspect ratio             : 2.35
Frame rate                       : 23.976 fps
Resolution                       : 24 bits
Colorimetry                      : 4:2:0
Scan type                        : Progressive
Bits/(Pixel*Frame)               : 0.239
Stream size                      : 3.85 GiB (88%)
Writing library                  : x264 core 67 r1153M 7b6ce6a
Encoding settings                : cabac=1 / ref=5 / deblock=1:0:0 / analyse=0x3:0x133 / me=umh / subme=9 / psy_rd=1.0:0.0 / mixed_ref=1 / me_range=32 / chroma_me=1 / trellis=2 / 8x8dct=1 / cqm=0 / deadzone=21,11 / chroma_qp_offset=-2 / threads=12 / nr=0 / decimate=0 / mbaff=0 / bframes=4 / b_pyramid=1 / b_adapt=2 / b_bias=0 / direct=3 / wpredb=1 / keyint=250 / keyint_min=25 / scenecut=40 / rc=2pass / bitrate=4072 / ratetol=1.0 / qcomp=0.60 / qpmin=10 / qpmax=51 / qpstep=4 / cplxblur=20.0 / qblur=0.5 / ip_ratio=1.40 / pb_ratio=1.30 / aq=1:1.00
Language                         : English

Audio
ID                               : 2
Format                           : AC-3
Format/Info                      : Audio Coding 3
Codec ID                         : A_AC3
Duration                         : 2h 18mn
Bit rate mode                    : Constant
Bit rate                         : 448 Kbps
Channel(s)                       : 6 channels
Channel positions                : Front: L C R, Surround: L R, LFE
Sampling rate                    : 48.0 KHz
Stream size                      : 444 MiB (10%)
Language                         : English

Text #1
ID                               : 3
Format                           : UTF-8
Codec ID                         : S_TEXT/UTF8
Codec ID/Info                    : UTF-8 Plain Text
Language                         : Romanian

Text #2
ID                               : 4
Format                           : UTF-8
Codec ID                         : S_TEXT/UTF8
Codec ID/Info                    : UTF-8 Plain Text
Language                         : English

Text #3
ID                               : 5
Format                           : UTF-8
Codec ID                         : S_TEXT/UTF8
Codec ID/Info                    : UTF-8 Plain Text
Language                         : Spanish

Text #4
ID                               : 6
Format                           : UTF-8
Codec ID                         : S_TEXT/UTF8
Codec ID/Info                    : UTF-8 Plain Text
Language                         : French

--------------------------------------------------------------

Genre :  Action, History, War
Rating : 6.9/10 (38,072 votes)
Language : English
Country : USA, Germany
Director : Randall Wallace
Link : http://www.imdb.com/title/tt0277434/

Plot OutLine :
The story of the first major battle of the American phase of the Vietnam War and the soldiers on both sides that fought it.

Cast :
Mel Gibson ... Lt. Col. Hal Moore
Madeleine Stowe ... Julie Moore
Greg Kinnear ... Maj. Bruce 'Snake' Crandall
Sam Elliott ... Sgt. Maj. Basil Plumley
Chris Klein ... 2nd Lt. Jack Geoghegan 

